<svg width="25" height="25" viewBox="0 0 25 25" fill="none" xmlns="http://www.w3.org/2000/svg">
<g clip-path="url(#clip0_601_36)">
<path d="M24.8424 12.6607C24.8424 5.95005 19.4023 0.51001 12.6917 0.51001C5.98105 0.51001 0.541016 5.95005 0.541016 12.6607C0.541016 18.7253 4.98432 23.7522 10.7931 24.6637V16.173H7.70801V12.6607H10.7931V9.98374C10.7931 6.93848 12.6072 5.25637 15.3826 5.25637C16.7116 5.25637 18.1025 5.49368 18.1025 5.49368V8.48389H16.5704C15.0611 8.48389 14.5902 9.42058 14.5902 10.3824V12.6607H17.9601L17.4214 16.173H14.5902V24.6637C20.3991 23.7522 24.8424 18.7253 24.8424 12.6607Z" fill="black"/>
</g>
<defs>
<clipPath id="clip0_601_36">
<rect width="24.3013" height="24.3013" fill="white" transform="translate(0.541016 0.51001)"/>
</clipPath>
</defs>
</svg>
