<svg width="31" height="31" viewBox="0 0 31 31" fill="none" xmlns="http://www.w3.org/2000/svg">
<g clip-path="url(#clip0_601_112)">
<path d="M30.9302 15.7897C30.9302 7.44756 24.1676 0.684937 15.8255 0.684937C7.48333 0.684937 0.720703 7.44756 0.720703 15.7897C0.720703 23.3288 6.24427 29.5778 13.4653 30.711V20.1559H9.63015V15.7897H13.4653V12.4619C13.4653 8.6763 15.7204 6.58524 19.1706 6.58524C20.8227 6.58524 22.5518 6.88025 22.5518 6.88025V10.5974H20.6472C18.7709 10.5974 18.1856 11.7619 18.1856 12.9576V15.7897H22.3748L21.7051 20.1559H18.1856V30.711C25.4067 29.5778 30.9302 23.3288 30.9302 15.7897Z" fill="black"/>
</g>
<defs>
<clipPath id="clip0_601_112">
<rect width="30.2095" height="30.2095" fill="white" transform="translate(0.720703 0.684937)"/>
</clipPath>
</defs>
</svg>
