<svg width="31" height="31" viewBox="0 0 31 31" fill="none" xmlns="http://www.w3.org/2000/svg">
<g clip-path="url(#clip0_601_106)">
<path d="M15.8177 3.40485C19.8535 3.40485 20.3314 3.42255 21.9186 3.49336C23.3936 3.55826 24.1902 3.80607 24.7212 4.01258C25.4233 4.284 25.9308 4.61441 26.4559 5.13954C26.9869 5.67057 27.3114 6.17209 27.5829 6.87423C27.7894 7.40525 28.0372 8.20769 28.1021 9.67687C28.1729 11.2699 28.1906 11.7479 28.1906 15.7778C28.1906 19.8136 28.1729 20.2915 28.1021 21.8787C28.0372 23.3538 27.7894 24.1503 27.5829 24.6813C27.3114 25.3835 26.981 25.8909 26.4559 26.416C25.9249 26.947 25.4233 27.2716 24.7212 27.543C24.1902 27.7495 23.3877 27.9973 21.9186 28.0622C20.3255 28.133 19.8476 28.1507 15.8177 28.1507C11.7819 28.1507 11.3039 28.133 9.71675 28.0622C8.24167 27.9973 7.44513 27.7495 6.9141 27.543C6.21197 27.2716 5.70454 26.9411 5.17942 26.416C4.64839 25.885 4.32387 25.3835 4.05246 24.6813C3.84595 24.1503 3.59814 23.3479 3.53323 21.8787C3.46243 20.2856 3.44473 19.8077 3.44473 15.7778C3.44473 11.742 3.46243 11.264 3.53323 9.67687C3.59814 8.20179 3.84595 7.40525 4.05246 6.87423C4.32387 6.17209 4.65429 5.66467 5.17942 5.13954C5.71044 4.60851 6.21197 4.284 6.9141 4.01258C7.44513 3.80607 8.24757 3.55826 9.71675 3.49336C11.3039 3.42255 11.7819 3.40485 15.8177 3.40485ZM15.8177 0.684814C11.7169 0.684814 11.2036 0.702515 9.59284 0.773319C7.98796 0.844123 6.8846 1.10374 5.92875 1.47545C4.9316 1.86487 4.08786 2.3782 3.25002 3.22194C2.40628 4.05979 1.89295 4.90353 1.50353 5.89478C1.13181 6.85653 0.872199 7.95398 0.801395 9.55886C0.730592 11.1755 0.712891 11.6889 0.712891 15.7896C0.712891 19.8903 0.730592 20.4036 0.801395 22.0144C0.872199 23.6193 1.13181 24.7226 1.50353 25.6785C1.89295 26.6756 2.40628 27.5194 3.25002 28.3572C4.08786 29.1951 4.9316 29.7143 5.92285 30.0978C6.8846 30.4695 7.98206 30.7291 9.58694 30.7999C11.1977 30.8707 11.711 30.8884 15.8118 30.8884C19.9125 30.8884 20.4258 30.8707 22.0366 30.7999C23.6415 30.7291 24.7448 30.4695 25.7007 30.0978C26.6919 29.7143 27.5356 29.1951 28.3735 28.3572C29.2113 27.5194 29.7306 26.6756 30.1141 25.6844C30.4858 24.7226 30.7454 23.6252 30.8162 22.0203C30.887 20.4095 30.9047 19.8962 30.9047 15.7955C30.9047 11.6948 30.887 11.1814 30.8162 9.57066C30.7454 7.96578 30.4858 6.86243 30.1141 5.90658C29.7424 4.90353 29.229 4.05979 28.3853 3.22194C27.5474 2.3841 26.7037 1.86487 25.7125 1.48135C24.7507 1.10964 23.6533 0.850023 22.0484 0.779219C20.4317 0.702515 19.9184 0.684814 15.8177 0.684814Z" fill="black"/>
<path d="M15.8175 8.03076C11.5339 8.03076 8.05859 11.506 8.05859 15.7897C8.05859 20.0733 11.5339 23.5485 15.8175 23.5485C20.1011 23.5485 23.5764 20.0733 23.5764 15.7897C23.5764 11.506 20.1011 8.03076 15.8175 8.03076ZM15.8175 20.8226C13.0384 20.8226 10.7845 18.5687 10.7845 15.7897C10.7845 13.0106 13.0384 10.7567 15.8175 10.7567C18.5965 10.7567 20.8504 13.0106 20.8504 15.7897C20.8504 18.5687 18.5965 20.8226 15.8175 20.8226Z" fill="black"/>
<path d="M25.6946 7.72375C25.6946 8.7268 24.8803 9.53514 23.8832 9.53514C22.8801 9.53514 22.0718 8.7209 22.0718 7.72375C22.0718 6.7207 22.886 5.91235 23.8832 5.91235C24.8803 5.91235 25.6946 6.7266 25.6946 7.72375Z" fill="black"/>
</g>
<defs>
<clipPath id="clip0_601_106">
<rect width="30.2095" height="30.2095" fill="white" transform="translate(0.712891 0.684814)"/>
</clipPath>
</defs>
</svg>
