<svg width="25" height="25" viewBox="0 0 25 25" fill="none" xmlns="http://www.w3.org/2000/svg">
<g clip-path="url(#clip0_601_34)">
<path d="M12.7591 2.69784C16.0056 2.69784 16.39 2.71208 17.6668 2.76903C18.8534 2.82124 19.4942 3.02059 19.9213 3.18671C20.4861 3.40504 20.8943 3.67084 21.3168 4.09327C21.7439 4.52044 22.005 4.92388 22.2233 5.48869C22.3894 5.91587 22.5888 6.56137 22.641 7.74321C22.6979 9.02473 22.7122 9.40919 22.7122 12.6509C22.7122 15.8975 22.6979 16.2819 22.641 17.5587C22.5888 18.7453 22.3894 19.386 22.2233 19.8132C22.005 20.378 21.7392 20.7862 21.3168 21.2086C20.8896 21.6358 20.4861 21.8969 19.9213 22.1152C19.4942 22.2813 18.8486 22.4807 17.6668 22.5329C16.3853 22.5898 16.0008 22.6041 12.7591 22.6041C9.51256 22.6041 9.12811 22.5898 7.85134 22.5329C6.66475 22.4807 6.02399 22.2813 5.59682 22.1152C5.032 21.8969 4.62382 21.6311 4.20139 21.2086C3.77422 20.7815 3.51317 20.378 3.29484 19.8132C3.12871 19.386 2.92937 18.7405 2.87716 17.5587C2.8202 16.2772 2.80596 15.8927 2.80596 12.6509C2.80596 9.40444 2.8202 9.01998 2.87716 7.74321C2.92937 6.55662 3.12871 5.91587 3.29484 5.48869C3.51317 4.92388 3.77896 4.51569 4.20139 4.09327C4.62856 3.66609 5.032 3.40504 5.59682 3.18671C6.02399 3.02059 6.6695 2.82124 7.85134 2.76903C9.12811 2.71208 9.51256 2.69784 12.7591 2.69784ZM12.7591 0.509766C9.46035 0.509766 9.04742 0.524005 7.75167 0.580961C6.46066 0.637917 5.57309 0.846757 4.80418 1.14578C4.00204 1.45904 3.32331 1.87197 2.64933 2.5507C1.9706 3.22468 1.55767 3.90341 1.24441 4.7008C0.94539 5.47446 0.73655 6.35728 0.679594 7.64829C0.622638 8.94879 0.608398 9.36172 0.608398 12.6604C0.608398 15.9592 0.622638 16.3721 0.679594 17.6678C0.73655 18.9589 0.94539 19.8464 1.24441 20.6153C1.55767 21.4175 1.9706 22.0962 2.64933 22.7702C3.32331 23.4442 4.00204 23.8618 4.79943 24.1704C5.57309 24.4694 6.45591 24.6782 7.74692 24.7352C9.04267 24.7921 9.45561 24.8064 12.7543 24.8064C16.053 24.8064 16.466 24.7921 17.7617 24.7352C19.0527 24.6782 19.9403 24.4694 20.7092 24.1704C21.5066 23.8618 22.1853 23.4442 22.8593 22.7702C23.5333 22.0962 23.951 21.4175 24.2595 20.6201C24.5585 19.8464 24.7674 18.9636 24.8243 17.6726C24.8813 16.3768 24.8955 15.9639 24.8955 12.6652C24.8955 9.36647 24.8813 8.95354 24.8243 7.65778C24.7674 6.36677 24.5585 5.4792 24.2595 4.71029C23.9605 3.90341 23.5475 3.22468 22.8688 2.5507C22.1948 1.87672 21.5161 1.45904 20.7187 1.15052C19.9451 0.851503 19.0622 0.642664 17.7712 0.585707C16.4707 0.524005 16.0578 0.509766 12.7591 0.509766Z" fill="black"/>
<path d="M12.759 6.41895C9.31318 6.41895 6.51758 9.21455 6.51758 12.6604C6.51758 16.1063 9.31318 18.9019 12.759 18.9019C16.2049 18.9019 19.0005 16.1063 19.0005 12.6604C19.0005 9.21455 16.2049 6.41895 12.759 6.41895ZM12.759 16.709C10.5235 16.709 8.71039 14.8959 8.71039 12.6604C8.71039 10.4249 10.5235 8.61176 12.759 8.61176C14.9946 8.61176 16.8077 10.4249 16.8077 12.6604C16.8077 14.8959 14.9946 16.709 12.759 16.709Z" fill="black"/>
<path d="M20.7043 6.17198C20.7043 6.97886 20.0493 7.62911 19.2472 7.62911C18.4403 7.62911 17.79 6.97411 17.79 6.17198C17.79 5.3651 18.445 4.71484 19.2472 4.71484C20.0493 4.71484 20.7043 5.36984 20.7043 6.17198Z" fill="black"/>
</g>
<defs>
<clipPath id="clip0_601_34">
<rect width="24.3013" height="24.3013" fill="white" transform="translate(0.608398 0.509766)"/>
</clipPath>
</defs>
</svg>
