<svg width="25" height="25" viewBox="0 0 25 25" fill="none" xmlns="http://www.w3.org/2000/svg">
<g clip-path="url(#clip0_601_33)">
<path d="M23.1446 0.509766H2.43621C1.44422 0.509766 0.64209 1.29291 0.64209 2.26117V23.055C0.64209 24.0232 1.44422 24.8111 2.43621 24.8111H23.1446C24.1366 24.8111 24.9434 24.0232 24.9434 23.0597V2.26117C24.9434 1.29291 24.1366 0.509766 23.1446 0.509766ZM7.85181 21.2181H4.24458V9.61802H7.85181V21.2181ZM6.04819 8.03749C4.89008 8.03749 3.95505 7.10246 3.95505 5.94909C3.95505 4.79573 4.89008 3.86069 6.04819 3.86069C7.20156 3.86069 8.13659 4.79573 8.13659 5.94909C8.13659 7.09771 7.20156 8.03749 6.04819 8.03749ZM21.3504 21.2181H17.748V15.5794C17.748 14.2362 17.7242 12.5038 15.8731 12.5038C13.9983 12.5038 13.7136 13.9704 13.7136 15.4845V21.2181H10.1158V9.61802H13.5712V11.2033H13.6186C14.098 10.292 15.2751 9.3285 17.0265 9.3285C20.6765 9.3285 21.3504 11.7302 21.3504 14.8533V21.2181V21.2181Z" fill="black"/>
</g>
<defs>
<clipPath id="clip0_601_33">
<rect width="24.3013" height="24.3013" fill="white" transform="translate(0.64209 0.509766)"/>
</clipPath>
</defs>
</svg>
