<svg width="31" height="31" viewBox="0 0 31 31" fill="none" xmlns="http://www.w3.org/2000/svg">
<g clip-path="url(#clip0_601_104)">
<path d="M28.1823 0.684814H2.4393C1.20613 0.684814 0.208984 1.65836 0.208984 2.86202V28.7112C0.208984 29.9149 1.20613 30.8943 2.4393 30.8943H28.1823C29.4155 30.8943 30.4185 29.9149 30.4185 28.7171V2.86202C30.4185 1.65836 29.4155 0.684814 28.1823 0.684814ZM9.17154 26.4278H4.68731V12.0075H9.17154V26.4278ZM6.92942 10.0427C5.48975 10.0427 4.32739 8.88033 4.32739 7.44656C4.32739 6.01278 5.48975 4.85042 6.92942 4.85042C8.3632 4.85042 9.52555 6.01278 9.52555 7.44656C9.52555 8.87443 8.3632 10.0427 6.92942 10.0427ZM25.952 26.4278H21.4737V19.4183C21.4737 17.7485 21.4442 15.5949 19.143 15.5949C16.8124 15.5949 16.4584 17.4181 16.4584 19.3003V26.4278H11.986V12.0075H16.2814V13.9782H16.3404C16.9363 12.8453 18.3996 11.6476 20.5768 11.6476C25.1141 11.6476 25.952 14.6331 25.952 18.5155V26.4278V26.4278Z" fill="black"/>
</g>
<defs>
<clipPath id="clip0_601_104">
<rect width="30.2095" height="30.2095" fill="white" transform="translate(0.208984 0.684814)"/>
</clipPath>
</defs>
</svg>
