<svg width="25" height="25" viewBox="0 0 25 25" fill="none" xmlns="http://www.w3.org/2000/svg">
<g clip-path="url(#clip0_601_35)">
<path d="M8.21966 22.5327C17.3877 22.5327 22.4037 14.9352 22.4037 8.34867C22.4037 8.13508 22.3989 7.91675 22.3894 7.70316C23.3652 6.99751 24.2073 6.12347 24.8761 5.12209C23.9673 5.52641 23.0025 5.79047 22.0145 5.90524C23.0548 5.28168 23.8337 4.3021 24.2068 3.14808C23.2282 3.72807 22.1579 4.1372 21.0419 4.35793C20.29 3.55897 19.2958 3.02997 18.2131 2.85271C17.1304 2.67544 16.0194 2.85979 15.052 3.37726C14.0845 3.89472 13.3145 4.71647 12.8609 5.71547C12.4073 6.71446 12.2955 7.83505 12.5426 8.90399C10.561 8.80455 8.62244 8.28978 6.85254 7.39306C5.08263 6.49633 3.52093 5.23767 2.26868 3.69866C1.63222 4.796 1.43746 6.0945 1.72399 7.33027C2.01052 8.56604 2.75683 9.64635 3.81125 10.3516C3.01965 10.3265 2.2454 10.1134 1.55246 9.72986V9.79156C1.55175 10.9431 1.94986 12.0594 2.67911 12.9506C3.40837 13.8419 4.42376 14.4531 5.55269 14.6803C4.8194 14.8809 4.04978 14.9102 3.30339 14.7657C3.62195 15.7561 4.24175 16.6223 5.0763 17.2434C5.91085 17.8646 6.91849 18.2097 7.95862 18.2306C6.1928 19.6177 4.0115 20.37 1.76604 20.3664C1.36783 20.3658 0.970008 20.3414 0.574707 20.2934C2.85585 21.7568 5.50943 22.5341 8.21966 22.5327Z" fill="black"/>
</g>
<defs>
<clipPath id="clip0_601_35">
<rect width="24.3013" height="24.3013" fill="white" transform="translate(0.574707 0.509766)"/>
</clipPath>
</defs>
</svg>
