<svg width="31" height="31" viewBox="0 0 31 31" fill="none" xmlns="http://www.w3.org/2000/svg">
<g clip-path="url(#clip0_601_110)">
<path d="M9.72041 28.062C21.1174 28.062 27.3529 18.6174 27.3529 10.4296C27.3529 10.164 27.347 9.89264 27.3352 9.62712C28.5481 8.74991 29.5949 7.66337 30.4263 6.41854C29.2966 6.92115 28.0972 7.24941 26.869 7.39209C28.1622 6.61693 29.1305 5.39919 29.5944 3.96461C28.3778 4.68559 27.0474 5.19419 25.6601 5.46859C24.7253 4.47539 23.4894 3.81777 22.1435 3.59741C20.7975 3.37705 19.4165 3.60622 18.2138 4.24949C17.0111 4.89276 16.0539 5.9143 15.49 7.15617C14.9262 8.39804 14.7871 9.79108 15.0944 11.1199C12.631 10.9963 10.2211 10.3564 8.0209 9.24162C5.8207 8.12688 3.87932 6.56221 2.32261 4.64904C1.53141 6.01316 1.28931 7.62736 1.64549 9.16357C2.00168 10.6998 2.92944 12.0427 4.24021 12.9195C3.25616 12.8882 2.29367 12.6233 1.43226 12.1465V12.2233C1.43138 13.6548 1.92628 15.0425 2.83283 16.1504C3.73938 17.2583 5.00164 18.0181 6.40503 18.3006C5.49346 18.55 4.53674 18.5863 3.60888 18.4068C4.00489 19.6379 4.77538 20.7147 5.81282 21.4868C6.85027 22.259 8.10289 22.688 9.39589 22.714C7.20077 24.4383 4.48915 25.3735 1.69777 25.3691C1.20274 25.3684 0.708204 25.338 0.216797 25.2783C3.05254 27.0975 6.35126 28.0638 9.72041 28.062Z" fill="black"/>
</g>
<defs>
<clipPath id="clip0_601_110">
<rect width="30.2095" height="30.2095" fill="white" transform="translate(0.216797 0.684814)"/>
</clipPath>
</defs>
</svg>
